<svg width="15" height="11" viewBox="0 0 15 11" fill="none" xmlns="http://www.w3.org/2000/svg">
<path d="M14.7083 0.291956C14.8014 0.384848 14.8753 0.495199 14.9257 0.616689C14.9761 0.73818 15.0021 0.868422 15.0021 0.999957C15.0021 1.13149 14.9761 1.26173 14.9257 1.38322C14.8753 1.50471 14.8014 1.61507 14.7083 1.70796L5.70829 10.708C5.6154 10.8011 5.50504 10.875 5.38355 10.9254C5.26206 10.9758 5.13182 11.0017 5.00029 11.0017C4.86875 11.0017 4.73851 10.9758 4.61702 10.9254C4.49553 10.875 4.38518 10.8011 4.29229 10.708L0.292286 6.70796C0.104513 6.52018 -0.000976562 6.26551 -0.000976562 5.99996C-0.000976562 5.73441 0.104513 5.47973 0.292286 5.29196C0.48006 5.10418 0.734735 4.99869 1.00029 4.99869C1.26584 4.99869 1.52051 5.10418 1.70829 5.29196L5.00029 8.58596L13.2923 0.291956C13.3852 0.19883 13.4955 0.124944 13.617 0.0745316C13.7385 0.0241187 13.8688 -0.00183105 14.0003 -0.00183105C14.1318 -0.00183105 14.2621 0.0241187 14.3836 0.0745316C14.505 0.124944 14.6154 0.19883 14.7083 0.291956Z" fill="white"/>
</svg>
