<svg width="58" height="49" viewBox="0 0 58 49" fill="none" xmlns="http://www.w3.org/2000/svg">
<path d="M54 3.00003V42H3C2.20435 42 1.44129 41.684 0.87868 41.1214C0.316071 40.5587 0 39.7957 0 39V3.00003C0.0101068 2.20752 0.329422 1.45032 0.889856 0.889886C1.45029 0.329453 2.20749 0.0101373 3 3.05176e-05H51C51.7927 0.00963023 52.5502 0.328783 53.1107 0.889325C53.6713 1.44987 53.9904 2.20736 54 3.00003Z" fill="#D0E0EF"/>
<path d="M29.3502 21L54.0002 42H3.0002C2.23836 42.0025 1.50461 41.7126 0.950195 41.19L24.6502 21H29.3502Z" fill="#C1D2E0"/>
<path d="M53.0502 0.810015L29.0702 21.24C28.4914 21.7292 27.758 21.9975 27.0002 21.9975C26.2424 21.9975 25.509 21.7292 24.9302 21.24L0.950195 0.810015C1.50461 0.287491 2.23836 -0.00242837 3.0002 1.53235e-05H51.0002C51.762 -0.00242837 52.4958 0.287491 53.0502 0.810015Z" fill="#E9F4FF"/>
<path d="M46 48.5C52.6274 48.5 58 43.1274 58 36.5C58 29.8726 52.6274 24.5 46 24.5C39.3726 24.5 34 29.8726 34 36.5C34 43.1274 39.3726 48.5 46 48.5Z" fill="#0F5096"/>
<path d="M43.1793 43.5C42.8083 43.4999 42.4526 43.3481 42.1903 43.0779L39.3927 40.1969C39.1379 39.9252 38.9969 39.5613 39.0001 39.1836C39.0032 38.8059 39.1504 38.4446 39.4097 38.1775C39.6691 37.9104 40.0199 37.7589 40.3867 37.7557C40.7534 37.7524 41.1068 37.8976 41.3706 38.16L43.1002 39.9412L50.5098 31.0395C50.6271 30.8888 50.7726 30.764 50.9376 30.6724C51.1027 30.5808 51.2839 30.5243 51.4706 30.5063C51.6573 30.4883 51.8456 30.5091 52.0243 30.5675C52.203 30.6259 52.3685 30.7207 52.5109 30.8463C52.6533 30.9718 52.7698 31.1256 52.8533 31.2984C52.9369 31.4713 52.9859 31.6597 52.9974 31.8524C53.0089 32.0451 52.9826 32.2382 52.9201 32.4203C52.8577 32.6023 52.7604 32.7696 52.6339 32.9122L44.241 42.9958C44.1109 43.155 43.9483 43.2828 43.7648 43.3699C43.5812 43.457 43.3813 43.5015 43.1793 43.5Z" fill="white"/>
</svg>
